{"title":"The Vow CAM READNFO XViD - INSPiRAL","uid":7050843,"size":1502978676,"categoryP":"video","categoryS":"movies","magnet":"?xt=urn:btih:e92f3520dcf60a540b2bf7019a4c6dac25bff882&amp;dn=The+Vow+CAM+READNFO+XViD+-+INSPiRAL&amp;tr=udp%3A%2F%2Ftracker.openbittorrent.com%3A80&amp;tr=udp%3A%2F%2Fopen.demonii.com%3A1337&amp;tr=udp%3A%2F%2Ftracker.coppersurfer.tk%3A6969&amp;tr=udp%3A%2F%2Fexodus.desync.com%3A6969","seeders":0,"leechers":0,"uploader":"TvTeam","files":5,"time":1329947413,"description":". \n &lt;a href=&quot;\nhttp://www.torrenting.com&quot; rel=&quot;nofollow&quot; target=&quot;_NEW&quot;&gt;\nhttp://www.torrenting.com&lt;/a&gt;          :     Once &amp; For all ;)\n\n\n               www . Torrenting . Com \n\n(((((((((((((= Enjoy No RAR releases =))))))))))))))))))))\n\n\n...................................NFO:....................................\n\n.[IMG]http://i.imgur.com/2mcr9.png[/IMG]\n\n \nTITLE: \n\nThe Vow 2012 CAM READNFO XViD - INSPiRAL\n\nIMDB: \n &lt;a href=&quot;\nhttp://www.imdb.com/title/tt1606389/&quot; rel=&quot;nofollow&quot; target=&quot;_NEW&quot;&gt;\nhttp://www.imdb.com/title/tt1606389/&lt;/a&gt;\n\n\nSOURCES:\n\nVIDEO - INFERNO 1.44GIG RELS THANKS\nAUDIO - INFERNO 1.44GIG RELS THANKS\nSUBS  - None Add\n\nSTATS:\n\nVideo\nID                               : 0\nFormat                           : MPEG-4 Visual\nFormat profile                   : Advanced Simple@L5\nFormat settings, BVOP            : 2\nFormat settings, QPel            : No\nFormat settings, GMC             : No warppoints\nFormat settings, Matrix          : Default (MPEG)\nMuxing mode                      : Packed bitstream\nCodec ID                         : XVID\nCodec ID/Hint                    : XviD\nDuration                         : 1h 39mn\nBit rate                         : 1 843 Kbps\nWidth                            : 688 pixels\nHeight                           : 288 pixels\nDisplay aspect ratio             : 2.40:1\nFrame rate                       : 29.970 fps\nColor space                      : YUV\nChroma subsampling               : 4:2:0\nBit depth                        : 8 bits\nScan type                        : Progressive\nCompression mode                 : Lossy\nBits/(Pixel*Frame)               : 0.310\nStream size                      : 1.28 GiB (93%)\nWriting library                  : XviD 64\n\nAudio\nID                               : 1\nFormat                           : MPEG Audio\nFormat version                   : Version 1\nFormat profile                   : Layer 3\nMode                             : Joint stereo\nMode extension                   : MS Stereo\nCodec ID                         : 55\nCodec ID/Hint                    : MP3\nDuration                         : 1h 39mn\nBit rate mode                    : Constant\nBit rate                         : 128 Kbps\nChannel(s)                       : 2 channels\nSampling rate                    : 44.1 KHz\nCompression mode                 : Lossy\nStream size                      : 91.1 MiB (6%)\nAlignment                        : Split accross interleaves\nInterleave, duration             : 33 ms (1.00 video frame)\nInterleave, preload duration     : 500 ms\n\n\nNOTES:\n\nSources:\nVideo ...pretty dam nice,but whacked perspective,lots of video noise,tops of subs across the bottom now and then,touch dull\nand lack of contrast ....but mega props for getting these so :clap:\nAudio ...got some noise,touch overpowering and got like a machine humming noise in the background you can hear...but once again\nfor cam audio its pretty nice.\n\n\nWorkdone:\nRight shitloads...lots to try and correct the best we could.First we tackled the perspective,for this used the filter in vdub and \npulled the left side to level up the video.From there i had to crop a few pixels off the left and also opted to crop the top of the subs\nthan remained across the bottom.\nNow i fixed the AR and changes the res to the nearest mod16 ...not rescale it back up.\nThen cleaned the noise up the best we could without taking too much detail out of it and then onto the brightness,contrast,chromam and sharpen\nall increased too better levels.\nOh also opted to change the rgb colours slightly ....nothing major on that.\nThen it was just the audi which i remastered in AA,by changing all the EQ bands and lowering the DBs.\n\nReadnfo:\nWell mainly too point out that i have cropped some off the left and bottom and to also say that the colours do slightly change throughout,so went\nfor a decent medium.oh and also the cam does slightly move now and then so the perspective,whilst alot better does dift a little in parts,but not a\nfat lot and does kick back in :)\n\nAnd yes its well late :lol: but been busy on other projects,but quality always shines through ;-)\n\nSCREENS TO SHOW THE PERSPECTIVE FIX:\n\n[IMG]http://i.imgur.com/xvmBJ.png[/IMG]\n[IMG]http://i.imgur.com/KVFZM.png[/IMG]\n\n\nSCREENS:\n\n[IMG]http://i.imgur.com/h12dS.png[/IMG]\n[IMG]http://i.imgur.com/6SMNb.png[/IMG]\n[IMG]http://i.imgur.com/trr4L.png[/IMG]\n[IMG]http://i.imgur.com/usYJN.png[/IMG]\n[IMG]http://i.imgur.com/zzwgd.png[/IMG]\n[IMG]http://i.imgur.com/CRuh2.png[/IMG]\n[IMG]http://i.imgur.com/Dn5Ls.png[/IMG]\n\n\nGREETZ: \n\nPast,Present and Future\n\n[IMG]http://i.imgur.com/2mcr9.png[/IMG]","torrent":{"xt":"urn:btih:e92f3520dcf60a540b2bf7019a4c6dac25bff882","amp;dn":"The+Vow+CAM+READNFO+XViD+-+INSPiRAL","amp;tr":["udp%3A%2F%2Ftracker.openbittorrent.com%3A80","udp%3A%2F%2Fopen.demonii.com%3A1337","udp%3A%2F%2Ftracker.coppersurfer.tk%3A6969","udp%3A%2F%2Fexodus.desync.com%3A6969"],"infoHash":"e92f3520dcf60a540b2bf7019a4c6dac25bff882","infoHashBuffer":{"type":"Buffer","data":[233,47,53,32,220,246,10,84,11,43,247,1,154,76,109,172,37,191,248,130]},"announce":[],"urlList":[]}}